<svg xmlns="http://www.w3.org/2000/svg" viewBox="0 0 480 480" role="presentation">
  <rect width="480" height="480" fill="#DDEAD6"/>
  <g stroke="#C6D9BE" stroke-width="26" fill="none">
    <path d="M-20 140h520M-20 330h520M120 -20v520M340 -20v520"/>
  </g>
  <g stroke="#fff" stroke-width="14" fill="none">
    <path d="M-20 140h520M-20 330h520M120 -20v520M340 -20v520"/>
  </g>
  <path d="M-20 240 L200 220 L320 300 L520 270" stroke="#FFD37A" stroke-width="18" fill="none"/>
  <g fill="#CFE0C6">
    <rect x="30" y="170" width="60" height="50" rx="6"/><rect x="150" y="60" width="80" height="54" rx="6"/>
    <rect x="370" y="180" width="70" height="60" rx="6"/><rect x="180" y="370" width="90" height="60" rx="6"/>
  </g>
  <path d="M-20 400 C 120 380 200 430 480 396 L480 480 L-20 480Z" fill="#AED6E8"/>
  <g transform="translate(240 236)">
    <ellipse cy="46" rx="22" ry="7" fill="#062F4A" opacity=".22"/>
    <path d="M0-52a34 34 0 0 0-34 34c0 26 34 60 34 60s34-34 34-60A34 34 0 0 0 0-52Z" fill="#FF7A59" stroke="#fff" stroke-width="6"/>
    <circle cy="-18" r="12" fill="#fff"/>
  </g>
</svg>
